<?xml version="1.0" encoding="iso-8859-1"?>
<!-- Uploaded to: SVG Repo, www.svgrepo.com, Generator: SVG Repo Mixer Tools -->
<svg version="1.1" id="Layer_1" xmlns="http://www.w3.org/2000/svg" xmlns:xlink="http://www.w3.org/1999/xlink" 
	 viewBox="0 0 508 508" xml:space="preserve">
<path style="fill:#E8E3E3;" d="M202,406v-44h-24v10c0,8.8-7.2,16-16,16c-8,0-14.4-5.6-15.6-13.2c0-0.8-0.4-2-0.4-2.8v-10h-24v44H202
	z"/>
<g>
	<path style="fill:#CC9999;" d="M118,408L118,408L118,408L118,408z"/>
	<path style="fill:#CC9999;" d="M173.6,374.4c0-0.8,0.4-1.6,0.4-2.4C174,372.8,174,373.6,173.6,374.4z"/>
</g>
<polygon style="fill:#7D8B95;" points="104.8,422 223.2,422 205.6,410 204,410 202,410 122.4,410 "/>
<path style="fill:#CC9999;" d="M146.4,374.8c0-0.8-0.4-2-0.4-2.8C146,372.8,146,374,146.4,374.8z"/>
<path style="fill:#E8E3E3;" d="M342,108v292c0,12,10,22,22,22h116c12,0,22-10,22-22V110c0-13.2-10.8-24-24-24H364
	C352,86,342,96,342,108z M478,220v28c0,1.2-0.8,2-2,2h-2H368h-2v-2v-26v-2c0-1.2,0.8-2,2-2h108C477.2,218,478,218.8,478,220z
	 M408,108.4c4.4,0,8,3.6,8,8s-3.6,8-8,8s-8-3.6-8-8S403.6,108.4,408,108.4z M376,104.4c6.8,0,12,5.2,12,12s-5.2,12-12,12
	s-12-5.2-12-12S369.2,104.4,376,104.4z"/>
<g>
	<circle style="fill:#61C2AB;" cx="376" cy="116.4" r="8"/>
	<circle style="fill:#61C2AB;" cx="408" cy="116.4" r="4"/>
</g>
<path style="fill:#CC9999;" d="M366,248v2h2C366.8,250,366,249.2,366,248z"/>
<rect x="370" y="218" style="fill:#646464;" width="104" height="28"/>
<path style="fill:#7D8B95;" d="M302,154H20c-7.6,0-14,6.4-14,14v176c0,7.6,6.4,14,14,14h284c7.6,0,14-6.4,14-14V170
	C318,161.2,310.8,154,302,154z M306,344c0,1.2-0.8,2-2,2h-2H20h-2v-2V174v-2c0-1.2,0.8-2,2-2h284c1.2,0,2,0.8,2,2V344z"/>
<path style="fill:#CC9999;" d="M18,344v2h2C18.8,346,18,345.2,18,344z"/>
<rect x="22" y="170" style="fill:#CDEEF9;" width="280" height="176"/>
<path d="M304,364H20c-11.2,0-20-8.8-20-20V168c0-11.2,8.8-20,20-20h284c11.2,0,20,8.8,20,20v176C324,355.2,315.2,364,304,364z
	 M20,156c-6.8,0-12,5.2-12,12v176c0,6.8,5.2,12,12,12h284c6.8,0,12-5.2,12-12V168c0-6.8-5.2-12-12-12H20z"/>
<path d="M304,348H20c-2.4,0-4-1.6-4-4V168c0-2.4,1.6-4,4-4h230c2.4,0,4,1.6,4,4s-1.6,4-4,4H24v168h276V172h-18c-2.4,0-4-1.6-4-4
	s1.6-4,4-4h22c2.4,0,4,1.6,4,4v176C308,346.4,306.4,348,304,348z"/>
<path d="M204,412h-84c-2.4,0-4-1.6-4-4v-46c0-2.4,1.6-4,4-4s4,1.6,4,4v42h76v-42c0-2.4,1.6-4,4-4s4,1.6,4,4v46
	C208,410.4,206.4,412,204,412z"/>
<path d="M229.6,428H98.4c-1.6,0-3.2-1.2-4-2.8s0-3.6,1.6-4.4l23.6-16c0.8-0.4,1.6-0.8,2.4-0.8h84c0.8,0,1.6,0.4,2.4,0.8l23.6,16
	c1.6,0.8,2,2.8,1.6,4.4S231.6,428,229.6,428z M111.2,420h105.2l-12-8h-81.6L111.2,420z"/>
<path d="M162,390c-10,0-18-8-18-18v-10c0-2.4,1.6-4,4-4s4,1.6,4,4v10c0,5.6,4.4,10,10,10s10-4.4,10-10v-10c0-2.4,1.6-4,4-4
	s4,1.6,4,4v10C180,382,172,390,162,390z"/>
<path d="M168.8,212.8c-1.2,0-2-0.4-2.8-1.2l-39.2-39.2c-1.6-1.6-1.6-4,0-5.6s4-1.6,5.6,0l39.2,39.2c1.6,1.6,1.6,4,0,5.6
	C170.8,212.4,169.6,212.8,168.8,212.8z"/>
<path d="M204.8,292.8c-1.2,0-2-0.4-2.8-1.2l-98-98c-1.6-1.6-1.6-4,0-5.6s4-1.6,5.6,0l98,98c1.6,1.6,1.6,4,0,5.6
	C207.2,292.4,206,292.8,204.8,292.8z"/>
<path d="M258.4,346c-1.2,0-2-0.4-2.8-1.2L218.8,308c-1.6-1.6-1.6-4,0-5.6s4-1.6,5.6,0l36.8,36.8c1.6,1.6,1.6,4,0,5.6
	C260.4,345.6,259.2,346,258.4,346z"/>
<path d="M480,428H364c-15.6,0-28-12.4-28-28V108c0-15.6,12.4-28,28-28h116c15.6,0,28,12.4,28,28v292C508,415.6,495.6,428,480,428z
	 M364,88c-11.2,0-20,8.8-20,20v292c0,11.2,8.8,20,20,20h116c11.2,0,20-8.8,20-20V108c0-11.2-8.8-20-20-20H364z"/>
<path d="M478,280H370c-2.4,0-4-1.6-4-4s1.6-4,4-4h108c2.4,0,4,1.6,4,4S480.4,280,478,280z"/>
<path d="M478,308H370c-2.4,0-4-1.6-4-4s1.6-4,4-4h108c2.4,0,4,1.6,4,4S480.4,308,478,308z"/>
<path d="M478,336H370c-2.4,0-4-1.6-4-4s1.6-4,4-4h108c2.4,0,4,1.6,4,4S480.4,336,478,336z"/>
<path d="M478,364H370c-2.4,0-4-1.6-4-4s1.6-4,4-4h108c2.4,0,4,1.6,4,4S480.4,364,478,364z"/>
<path d="M478,392H370c-2.4,0-4-1.6-4-4s1.6-4,4-4h108c2.4,0,4,1.6,4,4S480.4,392,478,392z"/>
<path d="M376,130.4c-7.6,0-14-6.4-14-14s6.4-14,14-14s14,6.4,14,14S383.6,130.4,376,130.4z M376,110.4c-3.2,0-6,2.8-6,6s2.8,6,6,6
	s6-2.8,6-6S379.2,110.4,376,110.4z"/>
<path d="M408,126.4c-5.6,0-10-4.4-10-10s4.4-10,10-10s10,4.4,10,10S413.6,126.4,408,126.4z M408,114.4c-1.2,0-2,0.8-2,2s0.8,2,2,2
	s2-0.8,2-2S409.2,114.4,408,114.4z"/>
<path d="M476,252H368c-2.4,0-4-1.6-4-4v-32c0-2.4,1.6-4,4-4h66c2.4,0,4,1.6,4,4s-1.6,4-4,4h-62v24h100v-24h-6c-2.4,0-4-1.6-4-4
	s1.6-4,4-4h10c2.4,0,4,1.6,4,4v32C480,250.4,478.4,252,476,252z"/>
</svg>