<?xml version="1.0" encoding="utf-8"?><!-- Uploaded to: SVG Repo, www.svgrepo.com, Generator: SVG Repo Mixer Tools -->
<svg width="800px" height="800px" viewBox="0 0 24 24" id="headset-alt" xmlns="http://www.w3.org/2000/svg" class="icon multi-color"><title style="stroke-width: 2;">headset alt</title><path id="secondary-fill" d="M9,12.27V16a1,1,0,0,1-1,1H7a3,3,0,0,1-3-3v-.64A4,4,0,0,1,7,12H8A2,2,0,0,1,9,12.27ZM17,12H16a2,2,0,0,0-1,.27V16a1,1,0,0,0,1,1h1a3,3,0,0,0,3-3v-.64A4,4,0,0,0,17,12Z" style="fill: rgb(44, 169, 188); stroke-width: 2;"></path><path id="tertiary-stroke" d="M4,14l-.19-2A8.23,8.23,0,0,1,12,3h0a8.23,8.23,0,0,1,8.19,9L20,14" style="fill: none; stroke: #b7b7b7; stroke-linecap: round; stroke-linejoin: round; stroke-width: 2;"></path><path id="primary-stroke" d="M9,11v5a1,1,0,0,1-1,1H7a3,3,0,0,1-3-3V13a3,3,0,0,1,3-3H8A1,1,0,0,1,9,11Zm8-1H16a1,1,0,0,0-1,1v5a1,1,0,0,0,1,1h1a3,3,0,0,0,3-3V13A3,3,0,0,0,17,10ZM12,20h3.25A1.89,1.89,0,0,0,17,18V17" style="fill: none; stroke: rgb(0, 0, 0); stroke-linecap: round; stroke-linejoin: round; stroke-width: 2;"></path></svg>