<?xml version="1.0" encoding="iso-8859-1"?>
<!-- Uploaded to: SVG Repo, www.svgrepo.com, Generator: SVG Repo Mixer Tools -->
<svg version="1.1" id="Layer_1" xmlns="http://www.w3.org/2000/svg" xmlns:xlink="http://www.w3.org/1999/xlink" 
	 viewBox="0 0 508 508" xml:space="preserve">
<path style="fill:#7D8B95;" d="M421.6,6H90c-11.6,0-24,7.6-24,20v228h376V26C442,14,434,6,421.6,6z M252.4,13.2c0.8-0.8,2-0.8,2.8,0
	c0.4,0.4,0.4,0.8,0.4,1.6c0,0.4-0.4,1.2-0.4,1.6c-0.4,0.4-0.8,0.4-1.6,0.4s-1.2-0.4-1.6-0.4c-0.4-0.4-0.4-0.8-0.4-1.6
	C252,14,252.4,13.6,252.4,13.2z M426,236c0,1.2-0.8,2-2,2h-2H84h-2v-2V34v-2c0-1.2,0.8-2,2-2h340c1.2,0,2,0.8,2,2V236z"/>
<path style="fill:#CC9999;" d="M254,16.4c0.4,0,1.2-0.4,1.6-0.4c0.4-0.4,0.4-0.8,0.4-1.6c0-0.4-0.4-1.2-0.4-1.6
	c-0.8-0.8-2-0.8-2.8,0c-0.4,0.4-0.4,0.8-0.4,1.6c0,0.4,0,1.2,0.4,1.6C252.8,16.4,253.6,16.4,254,16.4z"/>
<path style="fill:#E8E3E3;" d="M66,258v220c0,12,12,24,24,24h100v-52c0-10,10.4-16,20-16h87.6c10,0,16,6.4,16,16v52h107.6
	c12.4,0,20.4-12.4,20.4-24V258H66z M98,302v-2c0-1.2,0.8-2,2-2h16c1.2,0,2,0.8,2,2v16c0,1.2-0.8,2-2,2h-2h-14c-1.2,0-2-0.8-2-2V302z
	 M118,412c0,1.2-0.8,2-2,2h-2h-14c-1.2,0-2-0.8-2-2v-14v-2c0-1.2,0.8-2,2-2h16c1.2,0,2,0.8,2,2V412z M150,412c0,1.2-0.8,2-2,2h-2
	h-14c-1.2,0-2-0.8-2-2v-14v-2c0-1.2,0.8-2,2-2h16c1.2,0,2,0.8,2,2V412z M150,380c0,1.2-0.8,2-2,2h-2h-46c-1.2,0-2-0.8-2-2v-14v-2
	c0-1.2,0.8-2,2-2h48c1.2,0,2,0.8,2,2V380z M150,348c0,1.2-0.8,2-2,2h-2h-46c-1.2,0-2-0.8-2-2v-14v-2c0-1.2,0.8-2,2-2h48
	c1.2,0,2,0.8,2,2V348z M150,316c0,1.2-0.8,2-2,2h-2h-14c-1.2,0-2-0.8-2-2v-14v-2c0-1.2,0.8-2,2-2h16c1.2,0,2,0.8,2,2V316z M182,412
	c0,1.2-0.8,2-2,2h-2h-14c-1.2,0-2-0.8-2-2v-14v-2c0-1.2,0.8-2,2-2h16c1.2,0,2,0.8,2,2V412z M182,380c0,1.2-0.8,2-2,2h-2h-14
	c-1.2,0-2-0.8-2-2v-14v-2c0-1.2,0.8-2,2-2h16c1.2,0,2,0.8,2,2V380z M182,348c0,1.2-0.8,2-2,2h-2h-14c-1.2,0-2-0.8-2-2v-14v-2
	c0-1.2,0.8-2,2-2h16c1.2,0,2,0.8,2,2V348z M182,316c0,1.2-0.8,2-2,2h-2h-14c-1.2,0-2-0.8-2-2v-14v-2c0-1.2,0.8-2,2-2h16
	c1.2,0,2,0.8,2,2V316z M258,302v-2c0-1.2,0.8-2,2-2h16c1.2,0,2,0.8,2,2v16c0,1.2-0.8,2-2,2h-2h-14c-1.2,0-2-0.8-2-2V302z M258,334
	v-2c0-1.2,0.8-2,2-2h16c1.2,0,2,0.8,2,2v16c0,1.2-0.8,2-2,2h-2h-14c-1.2,0-2-0.8-2-2V334z M258,366v-2c0-1.2,0.8-2,2-2h16
	c1.2,0,2,0.8,2,2v16c0,1.2-0.8,2-2,2h-2h-14c-1.2,0-2-0.8-2-2V366z M226,302v-2c0-1.2,0.8-2,2-2h16c1.2,0,2,0.8,2,2v16
	c0,1.2-0.8,2-2,2h-2h-14c-1.2,0-2-0.8-2-2V302z M226,334v-2c0-1.2,0.8-2,2-2h16c1.2,0,2,0.8,2,2v16c0,1.2-0.8,2-2,2h-2h-14
	c-1.2,0-2-0.8-2-2V334z M226,366v-2c0-1.2,0.8-2,2-2h16c1.2,0,2,0.8,2,2v16c0,1.2-0.8,2-2,2h-2h-14c-1.2,0-2-0.8-2-2V366z M194,302
	v-2c0-1.2,0.8-2,2-2h16c1.2,0,2,0.8,2,2v16c0,1.2-0.8,2-2,2h-2h-14c-1.2,0-2-0.8-2-2V302z M194,334v-2c0-1.2,0.8-2,2-2h16
	c1.2,0,2,0.8,2,2v16c0,1.2-0.8,2-2,2h-2h-14c-1.2,0-2-0.8-2-2V334z M194,366v-2c0-1.2,0.8-2,2-2h16c1.2,0,2,0.8,2,2v16
	c0,1.2-0.8,2-2,2h-2h-14c-1.2,0-2-0.8-2-2V366z M310,412c0,1.2-0.8,2-2,2h-2H196c-1.2,0-2-0.8-2-2v-14v-2c0-1.2,0.8-2,2-2h112
	c1.2,0,2,0.8,2,2V412z M310,380c0,1.2-0.8,2-2,2h-2h-14c-1.2,0-2-0.8-2-2v-14v-2c0-1.2,0.8-2,2-2h16c1.2,0,2,0.8,2,2V380z M310,348
	c0,1.2-0.8,2-2,2h-2h-14c-1.2,0-2-0.8-2-2v-14v-2c0-1.2,0.8-2,2-2h16c1.2,0,2,0.8,2,2V348z M310,316c0,1.2-0.8,2-2,2h-2h-14
	c-1.2,0-2-0.8-2-2v-14v-2c0-1.2,0.8-2,2-2h16c1.2,0,2,0.8,2,2V316z M354,302v-2c0-1.2,0.8-2,2-2h16c1.2,0,2,0.8,2,2v16
	c0,1.2-0.8,2-2,2h-2h-14c-1.2,0-2-0.8-2-2V302z M354,334v-2c0-1.2,0.8-2,2-2h16c1.2,0,2,0.8,2,2v16c0,1.2-0.8,2-2,2h-2h-14
	c-1.2,0-2-0.8-2-2V334z M342,412c0,1.2-0.8,2-2,2h-2h-14c-1.2,0-2-0.8-2-2v-14v-2c0-1.2,0.8-2,2-2h16c1.2,0,2,0.8,2,2V412z M342,380
	c0,1.2-0.8,2-2,2h-2h-14c-1.2,0-2-0.8-2-2v-14v-2c0-1.2,0.8-2,2-2h16c1.2,0,2,0.8,2,2V380z M342,348c0,1.2-0.8,2-2,2h-2h-14
	c-1.2,0-2-0.8-2-2v-14v-2c0-1.2,0.8-2,2-2h16c1.2,0,2,0.8,2,2V348z M342,316c0,1.2-0.8,2-2,2h-2h-14c-1.2,0-2-0.8-2-2v-14v-2
	c0-1.2,0.8-2,2-2h16c1.2,0,2,0.8,2,2V316z M374,412c0,1.2-0.8,2-2,2h-2h-14c-1.2,0-2-0.8-2-2v-14v-2c0-1.2,0.8-2,2-2h16
	c1.2,0,2,0.8,2,2V412z M406,412c0,1.2-0.8,2-2,2h-2h-14c-1.2,0-2-0.8-2-2v-14v-2c0-1.2,0.8-2,2-2h16c1.2,0,2,0.8,2,2V412z M406,380
	c0,1.2-0.8,2-2,2h-2h-46c-1.2,0-2-0.8-2-2v-14v-2c0-1.2,0.8-2,2-2h30v-28v-2c0-1.2,0.8-2,2-2h16c1.2,0,2,0.8,2,2V380z M406,316
	c0,1.2-0.8,2-2,2h-2h-14c-1.2,0-2-0.8-2-2v-14v-2c0-1.2,0.8-2,2-2h16c1.2,0,2,0.8,2,2V316z"/>
<path style="fill:#AEB1B4;" d="M298,438h-88c-7.6,0-16,4.8-16,12v52h116v-52C310,442.4,305.6,438,298,438z"/>
<g>
	<rect x="102" y="302" style="fill:#646464;" width="12" height="12"/>
	<rect x="134" y="302" style="fill:#646464;" width="12" height="12"/>
	<rect x="166" y="302" style="fill:#646464;" width="12" height="12"/>
	<rect x="198" y="302" style="fill:#646464;" width="12" height="12"/>
	<rect x="230" y="302" style="fill:#646464;" width="12" height="12"/>
	<rect x="262" y="302" style="fill:#646464;" width="12" height="12"/>
	<rect x="294" y="302" style="fill:#646464;" width="12" height="12"/>
	<rect x="326" y="302" style="fill:#646464;" width="12" height="12"/>
	<rect x="358" y="302" style="fill:#646464;" width="12" height="12"/>
	<rect x="390" y="302" style="fill:#646464;" width="12" height="12"/>
	<rect x="166" y="334" style="fill:#646464;" width="12" height="12"/>
	<rect x="198" y="334" style="fill:#646464;" width="12" height="12"/>
	<rect x="230" y="334" style="fill:#646464;" width="12" height="12"/>
	<rect x="262" y="334" style="fill:#646464;" width="12" height="12"/>
	<rect x="294" y="334" style="fill:#646464;" width="12" height="12"/>
	<rect x="326" y="334" style="fill:#646464;" width="12" height="12"/>
	<rect x="358" y="334" style="fill:#646464;" width="12" height="12"/>
	<rect x="102" y="366" style="fill:#646464;" width="44" height="12"/>
	<rect x="166" y="366" style="fill:#646464;" width="12" height="12"/>
	<rect x="198" y="366" style="fill:#646464;" width="12" height="12"/>
	<rect x="230" y="366" style="fill:#646464;" width="12" height="12"/>
	<rect x="262" y="366" style="fill:#646464;" width="12" height="12"/>
	<rect x="294" y="366" style="fill:#646464;" width="12" height="12"/>
	<rect x="326" y="366" style="fill:#646464;" width="12" height="12"/>
	<path style="fill:#646464;" d="M388,366h-2h-28v12h44v-16v-28h-12v30C390,365.2,389.2,366,388,366z"/>
	<rect x="102" y="398" style="fill:#646464;" width="12" height="12"/>
	<rect x="134" y="398" style="fill:#646464;" width="12" height="12"/>
	<rect x="166" y="398" style="fill:#646464;" width="12" height="12"/>
	<rect x="326" y="398" style="fill:#646464;" width="12" height="12"/>
	<rect x="358" y="398" style="fill:#646464;" width="12" height="12"/>
	<rect x="390" y="398" style="fill:#646464;" width="12" height="12"/>
	<rect x="198" y="398" style="fill:#646464;" width="108" height="12"/>
	<rect x="102" y="334" style="fill:#646464;" width="44" height="12"/>
</g>
<path style="fill:#CC9999;" d="M82,236v2h2C82.8,238,82,237.2,82,236z"/>
<rect x="86" y="30" style="fill:#ACD9EA;" width="336" height="204"/>
<path d="M235.2,96.4c-1.2,0-2-0.4-2.8-1.2l-62.8-62.8c-1.6-1.6-1.6-4,0-5.6s4-1.6,5.6,0L238,89.6c1.6,1.6,1.6,4,0,5.6
	C237.2,96,236,96.4,235.2,96.4z"/>
<path d="M295.2,156.4c-1.2,0-2-0.4-2.8-1.2l-40-40c-1.6-1.6-1.6-4,0-5.6s4-1.6,5.6,0l40,40c1.6,1.6,1.6,4,0,5.6
	C297.2,156,296,156.4,295.2,156.4z"/>
<path d="M331.2,236.4c-1.2,0-2-0.4-2.8-1.2L212,118.8c-1.6-1.6-1.6-4,0-5.6s4-1.6,5.6,0L334,229.6c1.6,1.6,1.6,4,0,5.6
	C333.6,236,332.4,236.4,331.2,236.4z"/>
<path d="M424,240H84c-2.4,0-4-1.6-4-4V28c0-2.4,1.6-4,4-4h286c2.4,0,4,1.6,4,4s-1.6,4-4,4H88v200h332V32h-10c-2.4,0-4-1.6-4-4
	s1.6-4,4-4h14c2.4,0,4,1.6,4,4v208C428,238.4,426.4,240,424,240z"/>
<path d="M254,18.4c-1.2,0-2-0.4-2.8-1.2c-0.8-0.8-1.2-1.6-1.2-2.8c0-1.2,0.4-2,1.2-2.8c1.6-1.6,4-1.6,5.6,0c0.8,0.8,1.2,1.6,1.2,2.8
	c0,1.2-0.4,2-1.2,2.8C256,18,255.2,18.4,254,18.4z"/>
<path d="M444,260H64c-2.4,0-4-1.6-4-4V26C60,10,75.6,0,90,0h331.6C437.2,0,448,10.8,448,26v230C448,258.4,446.4,260,444,260z
	 M68,252h372V26c0-10.8-7.2-18-18.4-18H90c-10.8,0-22,6.8-22,18V252z"/>
<path d="M421.6,508H90c-15.6,0-30-14.4-30-30V256c0-2.4,1.6-4,4-4h380c2.4,0,4,1.6,4,4v222C448,492.4,438,508,421.6,508z M68,260
	v218c0,10.8,11.2,22,22,22h331.6c11.2,0,18.4-11.6,18.4-22V260H68z"/>
<path d="M312,506c-2.4,0-4-1.6-4-4v-52c0-6.4-3.6-10-10-10h-88c-6.8,0-14,4-14,10v52c0,2.4-1.6,4-4,4s-4-1.6-4-4v-52
	c0-11.2,11.2-18,22-18h87.6c11.2,0,18,7.2,18,18v52C316,504.4,314.4,506,312,506z"/>
<path d="M116,320h-16c-2.4,0-4-1.6-4-4v-16c0-2.4,1.6-4,4-4h16c2.4,0,4,1.6,4,4v16C120,318.4,118.4,320,116,320z M104,312h8v-8h-8
	V312z"/>
<path d="M148,320h-16c-2.4,0-4-1.6-4-4v-16c0-2.4,1.6-4,4-4h16c2.4,0,4,1.6,4,4v16C152,318.4,150.4,320,148,320z M136,312h8v-8h-8
	V312z"/>
<path d="M180,320h-16c-2.4,0-4-1.6-4-4v-16c0-2.4,1.6-4,4-4h16c2.4,0,4,1.6,4,4v16C184,318.4,182.4,320,180,320z M168,312h8v-8h-8
	V312z"/>
<path d="M212,320h-16c-2.4,0-4-1.6-4-4v-16c0-2.4,1.6-4,4-4h16c2.4,0,4,1.6,4,4v16C216,318.4,214.4,320,212,320z M200,312h8v-8h-8
	V312z"/>
<path d="M244,320h-16c-2.4,0-4-1.6-4-4v-16c0-2.4,1.6-4,4-4h16c2.4,0,4,1.6,4,4v16C248,318.4,246.4,320,244,320z M232,312h8v-8h-8
	V312z"/>
<path d="M276,320h-16c-2.4,0-4-1.6-4-4v-16c0-2.4,1.6-4,4-4h16c2.4,0,4,1.6,4,4v16C280,318.4,278.4,320,276,320z M264,312h8v-8h-8
	V312z"/>
<path d="M308,320h-16c-2.4,0-4-1.6-4-4v-16c0-2.4,1.6-4,4-4h16c2.4,0,4,1.6,4,4v16C312,318.4,310.4,320,308,320z M296,312h8v-8h-8
	V312z"/>
<path d="M340,320h-16c-2.4,0-4-1.6-4-4v-16c0-2.4,1.6-4,4-4h16c2.4,0,4,1.6,4,4v16C344,318.4,342.4,320,340,320z M328,312h8v-8h-8
	V312z"/>
<path d="M372,320h-16c-2.4,0-4-1.6-4-4v-16c0-2.4,1.6-4,4-4h16c2.4,0,4,1.6,4,4v16C376,318.4,374.4,320,372,320z M360,312h8v-8h-8
	V312z"/>
<path d="M404,320h-16c-2.4,0-4-1.6-4-4v-16c0-2.4,1.6-4,4-4h16c2.4,0,4,1.6,4,4v16C408,318.4,406.4,320,404,320z M392,312h8v-8h-8
	V312z"/>
<path d="M180,352h-16c-2.4,0-4-1.6-4-4v-16c0-2.4,1.6-4,4-4h16c2.4,0,4,1.6,4,4v16C184,350.4,182.4,352,180,352z M168,344h8v-8h-8
	V344z"/>
<path d="M212,352h-16c-2.4,0-4-1.6-4-4v-16c0-2.4,1.6-4,4-4h16c2.4,0,4,1.6,4,4v16C216,350.4,214.4,352,212,352z M200,344h8v-8h-8
	V344z"/>
<path d="M244,352h-16c-2.4,0-4-1.6-4-4v-16c0-2.4,1.6-4,4-4h16c2.4,0,4,1.6,4,4v16C248,350.4,246.4,352,244,352z M232,344h8v-8h-8
	V344z"/>
<path d="M276,352h-16c-2.4,0-4-1.6-4-4v-16c0-2.4,1.6-4,4-4h16c2.4,0,4,1.6,4,4v16C280,350.4,278.4,352,276,352z M264,344h8v-8h-8
	V344z"/>
<path d="M308,352h-16c-2.4,0-4-1.6-4-4v-16c0-2.4,1.6-4,4-4h16c2.4,0,4,1.6,4,4v16C312,350.4,310.4,352,308,352z M296,344h8v-8h-8
	V344z"/>
<path d="M340,352h-16c-2.4,0-4-1.6-4-4v-16c0-2.4,1.6-4,4-4h16c2.4,0,4,1.6,4,4v16C344,350.4,342.4,352,340,352z M328,344h8v-8h-8
	V344z"/>
<path d="M372,352h-16c-2.4,0-4-1.6-4-4v-16c0-2.4,1.6-4,4-4h16c2.4,0,4,1.6,4,4v16C376,350.4,374.4,352,372,352z M360,344h8v-8h-8
	V344z"/>
<path d="M148,384h-48c-2.4,0-4-1.6-4-4v-16c0-2.4,1.6-4,4-4h48c2.4,0,4,1.6,4,4v16C152,382.4,150.4,384,148,384z M104,376h40v-8h-40
	V376z"/>
<path d="M180,384h-16c-2.4,0-4-1.6-4-4v-16c0-2.4,1.6-4,4-4h16c2.4,0,4,1.6,4,4v16C184,382.4,182.4,384,180,384z M168,376h8v-8h-8
	V376z"/>
<path d="M212,384h-16c-2.4,0-4-1.6-4-4v-16c0-2.4,1.6-4,4-4h16c2.4,0,4,1.6,4,4v16C216,382.4,214.4,384,212,384z M200,376h8v-8h-8
	V376z"/>
<path d="M244,384h-16c-2.4,0-4-1.6-4-4v-16c0-2.4,1.6-4,4-4h16c2.4,0,4,1.6,4,4v16C248,382.4,246.4,384,244,384z M232,376h8v-8h-8
	V376z"/>
<path d="M276,384h-16c-2.4,0-4-1.6-4-4v-16c0-2.4,1.6-4,4-4h16c2.4,0,4,1.6,4,4v16C280,382.4,278.4,384,276,384z M264,376h8v-8h-8
	V376z"/>
<path d="M308,384h-16c-2.4,0-4-1.6-4-4v-16c0-2.4,1.6-4,4-4h16c2.4,0,4,1.6,4,4v16C312,382.4,310.4,384,308,384z M296,376h8v-8h-8
	V376z"/>
<path d="M340,384h-16c-2.4,0-4-1.6-4-4v-16c0-2.4,1.6-4,4-4h16c2.4,0,4,1.6,4,4v16C344,382.4,342.4,384,340,384z M328,376h8v-8h-8
	V376z"/>
<path d="M404,384h-48c-2.4,0-4-1.6-4-4v-16c0-2.4,1.6-4,4-4h28v-28c0-2.4,1.6-4,4-4h16c2.4,0,4,1.6,4,4v48
	C408,382.4,406.4,384,404,384z M360,376h40v-40h-8v28c0,2.4-1.6,4-4,4h-28V376z"/>
<path d="M116,416h-16c-2.4,0-4-1.6-4-4v-16c0-2.4,1.6-4,4-4h16c2.4,0,4,1.6,4,4v16C120,414.4,118.4,416,116,416z M104,408h8v-8h-8
	V408z"/>
<path d="M148,416h-16c-2.4,0-4-1.6-4-4v-16c0-2.4,1.6-4,4-4h16c2.4,0,4,1.6,4,4v16C152,414.4,150.4,416,148,416z M136,408h8v-8h-8
	V408z"/>
<path d="M180,416h-16c-2.4,0-4-1.6-4-4v-16c0-2.4,1.6-4,4-4h16c2.4,0,4,1.6,4,4v16C184,414.4,182.4,416,180,416z M168,408h8v-8h-8
	V408z"/>
<path d="M340,416h-16c-2.4,0-4-1.6-4-4v-16c0-2.4,1.6-4,4-4h16c2.4,0,4,1.6,4,4v16C344,414.4,342.4,416,340,416z M328,408h8v-8h-8
	V408z"/>
<path d="M372,416h-16c-2.4,0-4-1.6-4-4v-16c0-2.4,1.6-4,4-4h16c2.4,0,4,1.6,4,4v16C376,414.4,374.4,416,372,416z M360,408h8v-8h-8
	V408z"/>
<path d="M404,416h-16c-2.4,0-4-1.6-4-4v-16c0-2.4,1.6-4,4-4h16c2.4,0,4,1.6,4,4v16C408,414.4,406.4,416,404,416z M392,408h8v-8h-8
	V408z"/>
<path d="M308,416H196c-2.4,0-4-1.6-4-4v-16c0-2.4,1.6-4,4-4h112c2.4,0,4,1.6,4,4v16C312,414.4,310.4,416,308,416z M200,408h104v-8
	H200V408z"/>
<path d="M148,352h-48c-2.4,0-4-1.6-4-4v-16c0-2.4,1.6-4,4-4h48c2.4,0,4,1.6,4,4v16C152,350.4,150.4,352,148,352z M104,344h40v-8h-40
	V344z"/>
</svg>